REM GENRE Trip-Hop
REM DATE 1994
REM DISCID 810B700B
REM COMMENT "ExactAudioCopy v0.99pb4"
PERFORMER "Portishead"
TITLE "Dummy"
FILE "Portishead - Dummy.ape" WAVE
  TRACK 01 AUDIO
    TITLE "Mysterons"
    PERFORMER "Portishead"
    INDEX 01 00:00:00
  TRACK 02 AUDIO
    TITLE "Sour Times"
    PERFORMER "Portishead"
    INDEX 01 05:03:23
  TRACK 03 AUDIO
    TITLE "Strangers"
    PERFORMER "Portishead"
    INDEX 01 09:14:39
  TRACK 04 AUDIO
    TITLE "It Could Be Sweet"
    PERFORMER "Portishead"
    INDEX 01 13:11:36
  TRACK 05 AUDIO
    TITLE "Wandering Star"
    PERFORMER "Portishead"
    INDEX 01 17:27:73
  TRACK 06 AUDIO
    TITLE "It's a Fire"
    PERFORMER "Portishead"
    INDEX 01 22:20:35
  TRACK 07 AUDIO
    TITLE "Numb"
    PERFORMER "Portishead"
    INDEX 01 26:05:10
  TRACK 08 AUDIO
    TITLE "Roads"
    PERFORMER "Portishead"
    INDEX 01 29:59:47
  TRACK 09 AUDIO
    TITLE "Pedestal"
    PERFORMER "Portishead"
    INDEX 01 35:02:58
  TRACK 10 AUDIO
    TITLE "Biscuit"
    PERFORMER "Portishead"
    INDEX 01 38:41:67
  TRACK 11 AUDIO
    TITLE "Glory Box"
    PERFORMER "Portishead"
    INDEX 01 43:42:15